<svg width="1768" height="2000" viewBox="0 0 1768 2000" fill="none" xmlns="http://www.w3.org/2000/svg">
<path fill-rule="evenodd" clip-rule="evenodd" d="M1445.79 1.3061C1444.69 1.9411 1436.14 6.46516 1426.79 11.3612C1318.94 67.8292 1200.9 138.871 1099.29 208.473C1005.49 272.719 917.42 340.399 833.287 412.881C812.073 431.157 790.013 450.623 779.287 460.531C736.119 500.406 733.514 502.873 703.373 532.434C604.531 629.378 521.437 724.1 442.814 829.456C276.907 1051.77 155.752 1294.35 80.46 1554.96C44.084 1680.86 17.786 1817.5 3.85901 1952.96C2.47401 1966.43 1.03904 1981.62 0.670044 1986.71L0 1995.96L10.894 1996.18C16.885 1996.3 24.262 1996.45 27.287 1996.52C97.052 1998.16 273.082 1999.41 435.787 1999.43C680.644 1999.46 738.655 1998.86 766.787 1995.98C889.835 1983.4 984.936 1926.66 1034.81 1836.06C1055.38 1798.7 1068.29 1754.09 1072.32 1706.46C1074.24 1683.69 1073.17 1626.21 1070.67 1617.71C1070.18 1616.05 1055.48 1615.96 780.22 1615.96C543.357 1615.96 490.287 1615.72 490.287 1614.66C490.287 1610.37 509.478 1531.28 516.786 1505.46C518.031 1501.06 520.48 1492.28 522.228 1485.96C523.976 1479.63 526.235 1471.76 527.248 1468.46C528.261 1465.16 531.682 1453.91 534.85 1443.46C555.406 1375.66 586.652 1293.52 612.952 1238.14C616.005 1231.72 620.522 1222.2 622.991 1217C629.916 1202.4 649.564 1165.28 660.063 1146.96C748.936 991.855 860.638 874.924 1008.29 782.429C1035.87 765.148 1079.83 740.171 1080.86 741.196C1081.09 741.43 1081.73 755.759 1082.27 773.039C1088.27 963.796 1107 1149.79 1139.86 1344.95C1152.78 1421.66 1169.44 1506.94 1184.69 1574.46C1186.06 1580.51 1188.29 1590.41 1189.65 1596.46C1220.82 1734.87 1262.47 1876.53 1302.08 1978.78L1308.79 1996.1L1323.79 1995.53C1332.04 1995.22 1346.21 1994.74 1355.29 1994.46C1364.36 1994.19 1388.44 1993.4 1408.79 1992.71C1432.16 1991.92 1490.9 1991.46 1568.29 1991.46C1671.78 1991.46 1695.83 1991.73 1723.29 1993.2C1741.16 1994.16 1758.46 1995.23 1761.72 1995.57L1767.66 1996.2L1763.98 1991.33C1743.92 1964.73 1719.61 1926.62 1700.27 1891.46C1626.59 1757.53 1566.98 1574.99 1524.74 1353.96C1515.43 1305.19 1512.89 1290.81 1504.32 1237.96C1497.74 1197.41 1489.11 1134.46 1481.88 1074.46C1476.5 1029.77 1468.07 946.418 1465.29 910.456C1464.73 903.306 1463.82 892.731 1463.26 886.956C1461.03 863.907 1454.52 766.921 1452.32 723.956C1451.74 712.681 1450.82 694.906 1450.28 684.456C1441.59 516.664 1439.79 285.598 1445.8 108.456C1447.51 57.9521 1448.97 22.9681 1449.92 9.20613C1450.6 -0.670871 1450.28 -1.2869 1445.79 1.3061Z" fill="white"/>
</svg>
